<svg width="24" height="25" viewBox="0 0 24 25" fill="none" xmlns="http://www.w3.org/2000/svg">
<path d="M16.2969 8H8C8.70312 3.82812 10.2969 0.875 12.1719 0.875C14 0.875 15.6406 3.82812 16.2969 8ZM7.67188 12.5C7.67188 11.4688 7.71875 10.4844 7.8125 9.5H16.4844C16.5781 10.4844 16.625 11.4688 16.625 12.5C16.625 13.5781 16.5781 14.5625 16.4844 15.5H7.8125C7.71875 14.5625 7.67188 13.5781 7.67188 12.5ZM22.8594 8H17.7969C17.375 5.375 16.625 2.98438 15.4531 1.39062C18.8281 2.375 21.5469 4.85938 22.8594 8ZM8.84375 1.39062C7.67188 2.98438 6.92188 5.375 6.5 8H1.4375C2.75 4.85938 5.46875 2.375 8.84375 1.39062ZM23.375 9.5C23.6094 10.4844 23.75 11.4688 23.75 12.5C23.75 13.5781 23.6094 14.5625 23.375 15.5H17.9844C18.0781 14.5156 18.1719 13.5312 18.1719 12.5C18.1719 11.5156 18.0781 10.4844 17.9844 9.5H23.375ZM6.17188 12.5C6.17188 13.5312 6.21875 14.5156 6.3125 15.5H0.921875C0.6875 14.5625 0.546875 13.5781 0.546875 12.5C0.546875 11.4688 0.6875 10.4844 0.921875 9.5H6.3125C6.21875 10.4844 6.17188 11.5156 6.17188 12.5ZM8 17H16.2969C15.6406 21.2188 14 24.125 12.1719 24.125C10.2969 24.125 8.70312 21.2188 8 17ZM15.4531 23.6562C16.625 22.0625 17.4219 19.6719 17.7969 17H22.8594C21.5469 20.1875 18.8281 22.6719 15.4531 23.6562ZM1.4375 17H6.5C6.92188 19.6719 7.67188 22.0625 8.84375 23.6562C5.46875 22.6719 2.75 20.1875 1.4375 17Z" fill="#22B3C1"/>
</svg>
