<svg width="28" height="21" viewBox="0 0 28 21" fill="none" xmlns="http://www.w3.org/2000/svg">
<path d="M13.8063 5.48438C13.9 5.39062 14.0406 5.34375 14.1813 5.34375C14.275 5.34375 14.4156 5.39062 14.5094 5.48438L23.1813 12.5625V20.25C23.1813 20.6719 22.8063 21 22.4313 21H17.1344C16.7594 21 16.3844 20.6719 16.3844 20.25V15.75C16.3844 15.375 16.0563 15 15.6344 15H12.6344C12.2594 15 11.8844 15.375 11.8844 15.75V20.25C11.8844 20.6719 11.5563 21 11.1813 21H5.93125C5.50938 21 5.18125 20.6719 5.18125 20.25V12.6094L13.8063 5.48438ZM27.4469 10.3125C27.5875 10.4062 27.6813 10.5938 27.6813 10.7344C27.6813 10.875 27.6344 11.0156 27.5406 11.1094L26.3219 12.5625C26.2281 12.7031 26.0875 12.75 25.9 12.75C25.7594 12.75 25.6188 12.7031 25.525 12.6094L14.5094 3.5625C14.4156 3.46875 14.275 3.42188 14.1813 3.42188C14.0406 3.42188 13.9 3.46875 13.8063 3.5625L2.79063 12.6094C2.69688 12.7031 2.55625 12.75 2.41563 12.75C2.22813 12.75 2.0875 12.7031 1.99375 12.5625L0.775001 11.1094C0.728126 11.0156 0.634376 10.875 0.634376 10.7344C0.634376 10.5938 0.728126 10.4062 0.868751 10.3125L12.7281 0.515625C13.1031 0.234375 13.6188 0.046875 14.1813 0.046875C14.6969 0.046875 15.2125 0.234375 15.5875 0.515625L19.8063 3.98438V0.609375C19.8063 0.28125 20.0406 0.046875 20.3688 0.046875H22.9938C23.275 0.046875 23.5563 0.28125 23.5563 0.609375V7.07812L27.4469 10.3125Z" fill="#22B3C1"/>
</svg>
