<svg width="17" height="17" viewBox="0 0 17 17" fill="none" xmlns="http://www.w3.org/2000/svg">
<mask id="mask0_2_545" style="mask-type:luminance" maskUnits="userSpaceOnUse" x="0" y="0" width="17" height="17">
<path d="M16.23 0.639999H0.230042V16.64H16.23V0.639999Z" fill="white"/>
</mask>
<g mask="url(#mask0_2_545)">
<path d="M8.23247 4.53192C5.9638 4.53192 4.12714 6.37059 4.12714 8.63726C4.12714 10.9059 5.9658 12.7426 8.23247 12.7426C10.5011 12.7426 12.3378 10.9039 12.3378 8.63726C12.3378 6.36859 10.4991 4.53192 8.23247 4.53192ZM8.23247 11.3019C6.7598 11.3019 5.5678 10.1093 5.5678 8.63726C5.5678 7.16525 6.76047 5.97259 8.23247 5.97259C9.70447 5.97259 10.8971 7.16525 10.8971 8.63726C10.8978 10.1093 9.70514 11.3019 8.23247 11.3019Z" fill="white"/>
<path d="M11.5287 0.690906C10.0567 0.622239 6.41067 0.625572 4.93734 0.690906C3.64267 0.751572 2.50067 1.06424 1.58001 1.9849C0.0413432 3.52357 0.23801 5.5969 0.23801 8.6376C0.23801 11.7496 0.0646766 13.7749 1.58001 15.2903C3.12467 16.8343 5.22801 16.6323 8.23269 16.6323C11.3154 16.6323 12.3794 16.6343 13.4694 16.2123C14.9514 15.6369 16.07 14.3123 16.1794 11.9329C16.2487 10.4603 16.2447 6.8149 16.1794 5.34157C16.0474 2.5329 14.54 0.829572 11.5287 0.690906ZM13.8587 14.2723C12.85 15.2809 11.4507 15.1909 8.21336 15.1909C4.88001 15.1909 3.54334 15.2403 2.56801 14.2623C1.44467 13.1443 1.64801 11.3489 1.64801 8.62693C1.64801 4.94357 1.27001 2.2909 4.96667 2.10157C5.81601 2.07157 6.06601 2.06157 8.20402 2.06157L8.23402 2.08157C11.7867 2.08157 14.574 1.70957 14.7414 5.40557C14.7794 6.2489 14.788 6.50224 14.788 8.63693C14.7874 11.9316 14.85 13.2763 13.8587 14.2723Z" fill="white"/>
<path d="M12.5007 5.32949C13.0306 5.32949 13.46 4.89999 13.46 4.37016C13.46 3.84033 13.0306 3.41083 12.5007 3.41083C11.9709 3.41083 11.5414 3.84033 11.5414 4.37016C11.5414 4.89999 11.9709 5.32949 12.5007 5.32949Z" fill="white"/>
</g>
</svg>
