<svg width="20" height="14" viewBox="0 0 20 14" fill="none" xmlns="http://www.w3.org/2000/svg">
<path d="M3.19254 6.37744C2.13785 6.37744 1.31754 5.55713 1.31754 4.50244C1.31754 3.47705 2.13785 2.62744 3.19254 2.62744C4.21793 2.62744 5.06754 3.47705 5.06754 4.50244C5.06754 5.55713 4.21793 6.37744 3.19254 6.37744ZM16.3175 6.37744C15.2628 6.37744 14.4425 5.55713 14.4425 4.50244C14.4425 3.47705 15.2628 2.62744 16.3175 2.62744C17.3429 2.62744 18.1925 3.47705 18.1925 4.50244C18.1925 5.55713 17.3429 6.37744 16.3175 6.37744ZM17.255 7.31494C18.2804 7.31494 19.13 8.16455 19.13 9.18994V10.1274C19.13 10.6548 18.6906 11.0649 18.1925 11.0649H16.2589C16.0539 9.68799 15.2336 8.51611 14.0324 7.87158C14.3839 7.54932 14.8527 7.31494 15.38 7.31494H17.255ZM9.75504 7.31494C7.93863 7.31494 6.47379 5.8501 6.47379 4.03369C6.47379 2.24658 7.93863 0.752441 9.75504 0.752441C11.5421 0.752441 13.0363 2.24658 13.0363 4.03369C13.0363 5.8501 11.5421 7.31494 9.75504 7.31494ZM11.9816 8.25244C13.8566 8.25244 15.38 9.77588 15.38 11.6509V12.4712C15.38 13.2622 14.7355 13.8774 13.9738 13.8774H5.53629C4.74527 13.8774 4.13004 13.2622 4.13004 12.4712V11.6509C4.13004 9.77588 5.62418 8.25244 7.49918 8.25244H7.73355C8.34879 8.54541 9.02261 8.72119 9.75504 8.72119C10.4582 8.72119 11.132 8.54541 11.7472 8.25244H11.9816ZM5.44839 7.87158C4.24722 8.51611 3.42691 9.68799 3.22183 11.0649H1.31754C0.790192 11.0649 0.380035 10.6548 0.380035 10.1274V9.18994C0.380035 8.16455 1.20035 7.31494 2.25504 7.31494H4.13004C4.62808 7.31494 5.09683 7.54932 5.44839 7.87158Z" fill="#AFAFAF"/>
</svg>
