<svg width="22" height="25" viewBox="0 0 22 25" fill="none" xmlns="http://www.w3.org/2000/svg">
<path d="M11.1625 12.5C7.83438 12.5 5.1625 9.82812 5.1625 6.5C5.1625 3.21875 7.83438 0.5 11.1625 0.5C14.4438 0.5 17.1625 3.21875 17.1625 6.5C17.1625 9.82812 14.4438 12.5 11.1625 12.5ZM15.3344 14C18.8031 14 21.6625 16.8594 21.6625 20.3281V22.25C21.6625 23.5156 20.6313 24.5 19.4125 24.5H2.9125C1.64688 24.5 0.6625 23.5156 0.6625 22.25V20.3281C0.6625 16.8594 3.475 14 6.94375 14H7.74063C8.77188 14.5156 9.94375 14.75 11.1625 14.75C12.3813 14.75 13.5063 14.5156 14.5375 14H15.3344Z" fill="#22B3C1"/>
</svg>
