<svg width="17" height="17" viewBox="0 0 17 17" fill="none" xmlns="http://www.w3.org/2000/svg">
<path d="M14.0482 0.639999H2.41186C1.83321 0.639999 1.27825 0.869869 0.869081 1.27904C0.459911 1.68821 0.230042 2.24317 0.230042 2.82182V14.4582C0.230042 15.0369 0.459911 15.5918 0.869081 16.0009C1.27825 16.4101 1.83321 16.64 2.41186 16.64H14.0482C14.6269 16.64 15.1818 16.4101 15.591 16.0009C16.0002 15.5918 16.23 15.0369 16.23 14.4582V2.82182C16.23 2.24317 16.0002 1.68821 15.591 1.27904C15.1818 0.869869 14.6269 0.639999 14.0482 0.639999ZM13.22 5.27091L11.6582 12.1718C11.5846 12.4955 11.1737 12.6418 10.8855 12.4445L8.52731 10.8445L7.32638 11.98C7.27744 12.0259 7.21798 12.0593 7.15324 12.077C7.08851 12.0948 7.02038 12.0965 6.95477 12.082C6.88924 12.0675 6.82821 12.0372 6.777 11.9937C6.7258 11.9503 6.68596 11.8951 6.66095 11.8327L6.22731 10.56L5.79368 9.28727L3.46914 8.65093C3.40414 8.63673 3.34565 8.60147 3.30277 8.5506C3.25989 8.49973 3.23501 8.43613 3.232 8.36967C3.229 8.3032 3.24803 8.2376 3.28614 8.18313C3.32426 8.1286 3.37932 8.0882 3.44277 8.0682L12.4228 4.83273L12.5882 4.77363C12.9364 4.65182 13.2964 4.93363 13.22 5.27091Z" fill="white"/>
</svg>
